<svg width="557" height="557" viewBox="0 0 557 557" fill="none" xmlns="http://www.w3.org/2000/svg">
<path d="M324.954 206.867C334.717 216.63 334.717 232.459 324.954 242.222C315.19 251.985 299.361 251.985 289.598 242.222L178.114 130.738C165.29 117.914 144.498 117.914 131.675 130.738C118.851 143.562 118.851 164.354 131.675 177.177L161.135 206.637C170.898 216.4 170.898 232.229 161.135 241.992C151.372 251.755 135.543 251.755 125.779 241.992L96.3199 212.533C63.9699 180.183 63.9694 127.733 96.3192 95.3829C128.669 63.0328 181.12 63.0328 213.47 95.3829L324.954 206.867ZM460.833 342.746C493.183 375.096 493.183 427.546 460.833 459.896C428.483 492.246 376.033 492.246 343.683 459.896L232.199 348.412C222.436 338.649 222.436 322.82 232.199 313.056C241.962 303.294 257.791 303.293 267.554 313.056L379.038 424.54C391.862 437.364 412.654 437.364 425.478 424.54C438.301 411.717 438.301 390.925 425.477 378.101L396.018 348.642C386.255 338.879 386.255 323.05 396.018 313.286C405.781 303.523 421.61 303.523 431.373 313.286L460.833 342.746Z" fill="url(#paint0_linear_2_19)"/>
<path d="M242.576 231.969C252.339 241.732 252.339 257.561 242.576 267.324L131.092 378.808C118.268 391.632 118.268 412.424 131.092 425.248C143.916 438.072 164.707 438.071 177.531 425.247L206.99 395.788C216.753 386.025 232.583 386.025 242.346 395.788C252.109 405.551 252.109 421.38 242.346 431.143L212.886 460.603C180.536 492.953 128.086 492.953 95.7364 460.604C63.3863 428.253 63.3863 375.803 95.7364 343.453L207.22 231.969C216.983 222.206 232.813 222.206 242.576 231.969ZM461.207 95.7585C493.557 128.109 493.557 180.559 461.207 212.909L349.723 324.393C339.96 334.156 324.131 334.156 314.368 324.393C304.605 314.63 304.605 298.801 314.368 289.038L425.852 177.554C438.675 164.73 438.675 143.938 425.852 131.114C413.028 118.29 392.236 118.291 379.413 131.115L349.953 160.574C340.19 170.337 324.361 170.337 314.598 160.574C304.835 150.811 304.835 134.982 314.598 125.219L344.057 95.7592C376.407 63.4092 428.857 63.4087 461.207 95.7585Z" fill="url(#paint1_linear_2_19)"/>
<circle cx="46" cy="510.569" r="46" fill="#244779"/>
<circle cx="510.569" cy="46" r="46" fill="#244779"/>
<circle cx="510.569" cy="509.862" r="46" fill="#168A91"/>
<circle cx="46.7071" cy="46.0001" r="46" fill="#168A91"/>
<defs>
<linearGradient id="paint0_linear_2_19" x1="471.165" y1="353.078" x2="85.988" y2="202.201" gradientUnits="userSpaceOnUse">
<stop stop-color="#168A91"/>
<stop offset="0.332208" stop-color="#28C3D9"/>
<stop offset="1" stop-color="#168A91"/>
</linearGradient>
<linearGradient id="paint1_linear_2_19" x1="461.051" y1="95.6021" x2="95.8928" y2="460.76" gradientUnits="userSpaceOnUse">
<stop stop-color="#244779"/>
<stop offset="0.5" stop-color="#5F91AD"/>
<stop offset="1" stop-color="#244779"/>
</linearGradient>
</defs>
</svg>
